<svg xmlns="http://www.w3.org/2000/svg" width="367.947" height="321.977" viewBox="0 0 367.947 321.977"><path id="Path_1" data-name="Path 1" d="M236.6,91.068a28.69,28.69,0,0,1,24.795,14.23L416.63,369.779a28.732,28.732,0,0,1-24.8,43.266H81.357a28.732,28.732,0,0,1-24.8-43.266L211.8,105.3A28.692,28.692,0,0,1,236.6,91.068Zm0,91.993a17.208,17.208,0,0,0-17.249,17.249V280.8a17.249,17.249,0,1,0,34.5,0V200.31A17.207,17.207,0,0,0,236.6,183.061Zm23,160.989a23,23,0,1,0-11.5,19.916A23,23,0,0,0,259.6,344.05Z" transform="translate(-52.636 -91.068)" fill="#fab642"></path></svg>